# xmcd CD database file
#
# Track frame offsets:
#	150
#	19951
#	38401
#	60002
#	73053
#	89253
#	103953
#	123606
#	148656
#
# Disc length: 2278 seconds
#
# Revision: 0
# Processed by: cddbd v1.5.2PL0 Copyright (c) Steve Scherf et al.
# Submitted via: CDex 1.51
#
DISCID=7808e409
DTITLE=erm - Untitled
DYEAR=2007
DGENRE=Jazz
TTITLE0=Agua de Beber
TTITLE1=Someone Sweet
TTITLE2=I Concentrate on You
TTITLE3=Selfish Over You
TTITLE4=Out of this World
TTITLE5=I hear a Rhapsody
TTITLE6=Breakfast
TTITLE7=Meditation
TTITLE8=Fool my Heart
EXTD=YEAR: 2007
EXTT0=
EXTT1=
EXTT2=
EXTT3=
EXTT4=
EXTT5=
EXTT6=
EXTT7=
EXTT8=
PLAYORDER=
